<?xml version="1.0" encoding="utf-8"?>
<!-- Generator: Adobe Illustrator 26.1.0, SVG Export Plug-In . SVG Version: 6.00 Build 0)  -->
<svg version="1.1" id="layer_1" xmlns="http://www.w3.org/2000/svg" xmlns:xlink="http://www.w3.org/1999/xlink" x="0px"
	 y="0px" viewBox="0 0 400 400" style="enable-background:new 0 0 400 400;" xml:space="preserve">
<style type="text/css">
	.st0{fill:#FF4E00;}
</style>
<g>
	<path class="st0" d="M295.77,139.85c-3.3-6.59-10.03-10.75-17.4-10.75h-60.52c-10.74,0-19.45,8.71-19.45,19.45
		c0,10.74,8.71,19.45,19.45,19.45h21.62l-38.9,51.87l-62.25-82.99c-6.45-8.59-18.63-10.34-27.23-3.89
		c-8.59,6.45-10.34,18.64-3.89,27.23l69.06,92.07l-65.1,86.79h-36.2V253.9c0-3.24-0.81-6.43-2.36-9.27l-23.99-44.21l23.99-44.2
		c1.55-2.85,2.36-6.04,2.36-9.28V61.75h41.13c10.74,0,19.45-8.71,19.45-19.45s-8.71-19.45-19.45-19.45H55.5
		c-10.74,0-19.45,8.71-19.45,19.45V142L9.39,191.14c-3.14,5.79-3.14,12.77,0,18.55l26.66,49.15v99.7c0,10.74,8.71,19.45,19.45,19.45
		h60.58c3.71,0,7.13-1.09,10.08-2.89c4.68-0.84,9.07-3.29,12.15-7.39l155.62-207.49C298.35,154.32,299.06,146.44,295.77,139.85z"/>
	<path class="st0" d="M391.29,191.14L364.63,142V42.3c0-10.74-8.71-19.45-19.45-19.45H284.6c-10.74,0-19.45,8.71-19.45,19.45
		s8.71,19.45,19.45,19.45h41.13v85.19c0,3.24,0.81,6.43,2.36,9.27l23.98,44.2l-23.98,44.21c-1.55,2.85-2.36,6.03-2.36,9.27v85.18
		H284.6c-10.74,0-19.45,8.71-19.45,19.45c0,10.74,8.71,19.45,19.45,19.45h60.58c10.74,0,19.45-8.71,19.45-19.45v-99.7l26.66-49.15
		C394.43,203.91,394.43,196.92,391.29,191.14z"/>
</g>
</svg>
